<?xml version="1.0" encoding="UTF-8"?>
<svg id="Capa_1" data-name="Capa 1" xmlns="http://www.w3.org/2000/svg" viewBox="0 0 1080 1080">
  <defs>
    <style>
      .cls-1 {
        fill: #8a8a8a;
      }
    </style>
  </defs>
  <polygon class="cls-1" points="1023.28 517.46 1023.28 561.31 975.8 561.31 975.8 607.33 931.96 607.33 931.96 652.89 888.11 652.89 888.11 694.79 844.27 694.79 844.27 742.52 800.43 742.52 800.43 784.42 756.58 784.42 756.58 831.18 712.74 831.18 712.74 876 668.89 876 668.89 607.33 41.6 607.33 41.6 475.82 668.89 475.82 668.89 204 712.74 204 712.74 245.64 756.58 245.64 756.58 296.07 800.43 296.07 800.43 344.29 844.27 344.29 844.27 385.93 888.11 385.93 888.11 429.77 931.96 429.77 931.96 475.82 975.8 475.82 975.8 517.46 1023.28 517.46"/>
</svg>