<?xml version="1.0" encoding="UTF-8"?>
<svg id="Capa_1" data-name="Capa 1" xmlns="http://www.w3.org/2000/svg" viewBox="0 0 1080 1080">
  <defs>
    <style>
      .cls-1 {
        fill: #fff;
      }

      .cls-2 {
        fill: #f7c8df;
      }

      .cls-3 {
        fill: #e95296;
      }

      .cls-4 {
        fill: #ef87b5;
      }

      .cls-5 {
        fill: #f19dc3;
      }

      .cls-6 {
        fill: #ec6ea5;
      }

      .cls-7 {
        fill: #1d1d1b;
      }
    </style>
  </defs>
  <rect class="cls-6" y="-.27" width="134.97" height="136.05"/>
  <rect class="cls-4" y="135.78" width="134.97" height="136.05"/>
  <rect class="cls-4" x="134.97" y="-.27" width="135.03" height="136.05"/>
  <rect class="cls-4" y="271.83" width="134.97" height="136.11"/>
  <rect class="cls-7" y="407.94" width="134.97" height="136.05"/>
  <rect class="cls-1" x="134.97" y="407.94" width="135.03" height="136.05"/>
  <rect class="cls-4" y="543.99" width="134.97" height="136.05"/>
  <rect class="cls-4" y="680.04" width="134.97" height="136.11"/>
  <rect class="cls-4" x="134.97" y="680.04" width="135.03" height="136.11"/>
  <rect class="cls-4" y="816.14" width="134.97" height="136.05"/>
  <rect class="cls-4" y="952.19" width="134.97" height="136.05"/>
  <rect class="cls-4" x="134.97" y="952.19" width="135.03" height="136.05"/>
  <rect class="cls-4" x="270" y="952.19" width="134.97" height="136.05"/>
  <rect class="cls-4" x="404.97" y="952.19" width="135.03" height="136.05"/>
  <rect class="cls-2" x="404.97" y="816.14" width="135.03" height="136.05"/>
  <rect class="cls-2" x="270" y="816.14" width="134.97" height="136.05"/>
  <rect class="cls-3" x="270" y="680.04" width="134.97" height="136.11"/>
  <rect class="cls-6" x="404.97" y="-.27" width="135.03" height="136.05"/>
  <rect class="cls-6" x="270" y="-.27" width="134.97" height="136.05"/>
  <rect class="cls-5" x="540" y="-.27" width="134.97" height="136.05"/>
  <rect class="cls-5" x="674.97" y="-.27" width="135.03" height="136.05"/>
  <rect class="cls-5" x="810" y="-.27" width="134.97" height="136.05"/>
  <rect class="cls-5" x="944.97" y="-.27" width="135.03" height="136.05"/>
  <rect class="cls-6" x="944.97" y="135.78" width="135.03" height="136.05"/>
  <rect class="cls-4" x="674.97" y="135.78" width="135.03" height="136.05"/>
  <rect class="cls-5" x="540" y="135.78" width="134.97" height="136.05"/>
  <rect class="cls-6" x="944.97" y="271.83" width="135.03" height="136.11"/>
  <rect class="cls-7" x="944.97" y="407.94" width="135.03" height="136.05"/>
  <rect class="cls-4" x="944.97" y="543.99" width="135.03" height="136.05"/>
  <rect class="cls-4" x="944.97" y="680.04" width="135.03" height="136.11"/>
  <rect class="cls-4" x="944.97" y="816.14" width="135.03" height="136.05"/>
  <rect class="cls-4" x="944.97" y="952.19" width="135.03" height="136.05"/>
  <rect class="cls-4" x="810" y="952.19" width="134.97" height="136.05"/>
  <rect class="cls-4" x="674.97" y="952.19" width="135.03" height="136.05"/>
  <rect class="cls-4" x="540" y="952.19" width="134.97" height="136.05"/>
  <rect class="cls-2" x="540" y="816.14" width="134.97" height="136.05"/>
  <rect class="cls-2" x="674.97" y="816.14" width="135.03" height="136.05"/>
  <rect class="cls-3" x="674.97" y="680.04" width="135.03" height="136.11"/>
  <rect class="cls-5" x="540" y="680.04" width="134.97" height="136.11"/>
  <rect class="cls-4" x="134.97" y="135.78" width="135.03" height="136.05"/>
  <rect class="cls-2" x="270" y="543.99" width="134.97" height="136.05"/>
  <rect class="cls-4" x="270" y="407.94" width="134.97" height="136.05"/>
  <rect class="cls-4" x="404.97" y="407.94" width="135.03" height="136.05"/>
  <rect class="cls-4" x="404.97" y="271.83" width="135.03" height="136.11"/>
  <rect class="cls-4" x="270" y="271.83" width="134.97" height="136.11"/>
  <rect class="cls-4" x="270" y="135.78" width="134.97" height="136.05"/>
  <rect class="cls-4" x="404.97" y="135.78" width="135.03" height="136.05"/>
  <rect class="cls-5" x="810" y="135.78" width="134.97" height="136.05"/>
  <rect class="cls-4" x="810" y="271.83" width="134.97" height="136.11"/>
  <rect class="cls-1" x="810" y="407.94" width="134.97" height="136.05"/>
  <rect class="cls-4" x="810" y="543.99" width="134.97" height="136.05"/>
  <rect class="cls-4" x="810" y="680.04" width="134.97" height="136.11"/>
  <rect class="cls-4" x="810" y="816.14" width="134.97" height="136.05"/>
  <rect class="cls-4" x="674.97" y="271.83" width="135.03" height="136.11"/>
  <rect class="cls-4" x="674.97" y="407.94" width="135.03" height="136.05"/>
  <rect class="cls-2" x="674.97" y="543.99" width="135.03" height="136.05"/>
  <rect class="cls-4" x="540" y="271.83" width="134.97" height="136.11"/>
  <rect class="cls-4" x="540" y="407.94" width="134.97" height="136.05"/>
  <rect class="cls-2" x="540" y="543.99" width="134.97" height="136.05"/>
  <rect class="cls-5" x="404.97" y="680.04" width="135.03" height="136.11"/>
  <rect class="cls-2" x="404.97" y="543.99" width="135.03" height="136.05"/>
  <rect class="cls-4" x="134.97" y="271.83" width="135.03" height="136.11"/>
  <rect class="cls-4" x="134.97" y="543.99" width="135.03" height="136.05"/>
  <rect class="cls-4" x="134.97" y="816.14" width="135.03" height="136.05"/>
</svg>