<?xml version="1.0" encoding="UTF-8"?>
<svg id="Capa_1" data-name="Capa 1" xmlns="http://www.w3.org/2000/svg" viewBox="0 0 1080 1080">
  <defs>
    <style>
      .cls-1 {
        fill: #47341c;
      }

      .cls-2 {
        fill: #876a43;
      }

      .cls-3 {
        fill: #cfd1d3;
      }

      .cls-4 {
        fill: #1d1d1b;
      }
    </style>
  </defs>
  <rect class="cls-1" x="176.41" y="983.5" width="80.82" height="80.58"/>
  <rect class="cls-1" x="95.59" y="902.84" width="80.82" height="80.66"/>
  <rect class="cls-2" x="176.41" y="902.84" width="80.82" height="80.66"/>
  <rect class="cls-2" x="257.22" y="822.19" width="80.82" height="80.66"/>
  <rect class="cls-3" x="499.59" y="177.16" width="80.82" height="80.66"/>
  <rect class="cls-3" x="580.41" y="177.16" width="80.82" height="80.66"/>
  <rect class="cls-3" x="580.41" y="96.58" width="80.82" height="80.58"/>
  <rect class="cls-3" x="661.22" y="96.58" width="80.74" height="80.58"/>
  <rect class="cls-3" x="822.78" y="419.05" width="80.82" height="80.66"/>
  <rect class="cls-3" x="822.78" y="499.71" width="80.82" height="80.66"/>
  <rect class="cls-4" x="580.41" y="15.92" width="80.82" height="80.66"/>
  <rect class="cls-4" x="661.22" y="15.92" width="80.74" height="80.66"/>
  <rect class="cls-4" x="741.96" y="96.58" width="80.82" height="80.58"/>
  <rect class="cls-4" x="499.59" y="96.58" width="80.82" height="80.58"/>
  <rect class="cls-3" x="418.78" y="257.81" width="80.81" height="80.66"/>
  <rect class="cls-4" x="741.96" y="177.16" width="80.82" height="80.66"/>
  <rect class="cls-3" x="661.22" y="177.16" width="80.74" height="80.66"/>
  <rect class="cls-4" x="418.78" y="177.16" width="80.81" height="80.66"/>
  <rect class="cls-3" x="580.41" y="257.81" width="80.82" height="80.66"/>
  <rect class="cls-3" x="661.22" y="257.81" width="80.74" height="80.66"/>
  <rect class="cls-4" x="338.04" y="257.81" width="80.74" height="80.66"/>
  <rect class="cls-3" x="661.22" y="338.47" width="80.74" height="80.58"/>
  <rect class="cls-4" x="499.59" y="419.05" width="80.82" height="80.66"/>
  <rect class="cls-1" x="257.22" y="902.84" width="80.82" height="80.66"/>
  <rect class="cls-1" x="338.04" y="822.19" width="80.74" height="80.66"/>
  <rect class="cls-1" x="499.59" y="660.95" width="80.82" height="80.66"/>
  <rect class="cls-1" x="418.78" y="741.61" width="80.81" height="80.58"/>
  <rect class="cls-4" x="903.59" y="499.71" width="80.82" height="80.66"/>
  <rect class="cls-4" x="903.59" y="419.05" width="80.82" height="80.66"/>
  <rect class="cls-3" x="741.96" y="338.47" width="80.82" height="80.58"/>
  <rect class="cls-3" x="741.96" y="257.81" width="80.82" height="80.66"/>
  <rect class="cls-4" x="822.78" y="580.37" width="80.82" height="80.58"/>
  <rect class="cls-4" x="822.78" y="338.47" width="80.82" height="80.58"/>
  <rect class="cls-1" x="822.78" y="257.81" width="80.82" height="80.66"/>
  <rect class="cls-4" x="741.96" y="580.37" width="80.82" height="80.58"/>
  <rect class="cls-3" x="741.96" y="419.05" width="80.82" height="80.66"/>
  <rect class="cls-3" x="741.96" y="499.71" width="80.82" height="80.66"/>
  <rect class="cls-4" x="661.22" y="499.71" width="80.74" height="80.66"/>
  <rect class="cls-3" x="661.22" y="419.05" width="80.74" height="80.66"/>
  <rect class="cls-1" x="580.41" y="580.37" width="80.82" height="80.58"/>
  <rect class="cls-4" x="580.41" y="419.05" width="80.82" height="80.66"/>
  <rect class="cls-3" x="580.41" y="338.47" width="80.82" height="80.58"/>
  <rect class="cls-3" x="499.59" y="257.81" width="80.82" height="80.66"/>
  <rect class="cls-3" x="499.59" y="338.47" width="80.82" height="80.58"/>
  <rect class="cls-1" x="176.41" y="822.19" width="80.82" height="80.66"/>
  <rect class="cls-1" x="257.22" y="741.61" width="80.82" height="80.58"/>
  <rect class="cls-1" x="338.04" y="660.95" width="80.74" height="80.66"/>
  <rect class="cls-1" x="418.78" y="580.37" width="80.81" height="80.58"/>
  <rect class="cls-1" x="499.59" y="499.71" width="80.82" height="80.66"/>
  <rect class="cls-4" x="418.78" y="419.05" width="80.81" height="80.66"/>
  <rect class="cls-4" x="338.04" y="338.47" width="80.74" height="80.58"/>
  <rect class="cls-3" x="418.78" y="338.47" width="80.81" height="80.58"/>
  <rect class="cls-2" x="580.41" y="499.71" width="80.82" height="80.66"/>
  <rect class="cls-2" x="499.59" y="580.37" width="80.82" height="80.58"/>
  <rect class="cls-2" x="338.04" y="741.61" width="80.74" height="80.58"/>
  <rect class="cls-2" x="418.78" y="660.95" width="80.81" height="80.66"/>
</svg>