<?xml version="1.0" encoding="UTF-8"?>
<svg id="Capa_1" data-name="Capa 1" xmlns="http://www.w3.org/2000/svg" viewBox="0 0 1080 1080">
  <defs>
    <style>
      .cls-1 {
        fill: #47341c;
      }

      .cls-2 {
        fill: #876a43;
      }

      .cls-3 {
        fill: #cfd1d3;
      }

      .cls-4 {
        fill: none;
      }
    </style>
  </defs>
  <rect class="cls-4" x="800.66" y="198.72" width=".5" height="6.17"/>
  <polygon class="cls-3" points="886.37 374.32 883.38 374.32 883.38 288.61 882.88 288.61 805.14 288.61 800.66 288.61 800.66 204.89 800.66 198.72 796.17 198.72 717.44 198.72 710.96 198.72 710.96 198.16 710.96 196.86 710.96 196.17 710.96 117.18 284.88 117.18 284.88 196.42 627.74 196.42 627.74 202.89 627.74 286.12 714.95 286.12 715.44 286.12 715.44 292.59 715.44 372.83 801.16 372.83 801.16 376.31 801.16 461.28 886.37 461.28 887.62 461.28 887.62 805.38 973.08 805.38 973.08 374.32 886.37 374.32"/>
  <polygon class="cls-2" points="800.66 204.89 800.66 288.61 805.14 288.61 882.88 288.61 883.38 288.61 883.38 284.12 883.38 198.41 882.88 198.41 801.16 198.41 801.16 198.72 801.16 204.89 800.66 204.89"/>
  <polygon class="cls-1" points="627.74 465.02 627.74 546.75 627.74 550.23 713.7 550.23 713.7 465.02 628.48 465.02 627.74 465.02"/>
  <polygon class="cls-1" points="623.5 461.53 623.5 460.03 623.5 374.82 538.29 374.82 538.29 461.53 542.52 461.53 623.5 461.53"/>
  <polygon class="cls-2" points="710.96 376.31 625.24 376.31 625.24 374.82 623.5 374.82 623.5 460.03 623.5 461.53 627.74 461.53 627.74 465.02 628.48 465.02 713.7 465.02 713.7 463.02 710.96 463.02 710.96 376.31"/>
  <polygon class="cls-1" points="541.03 551.73 541.03 633.46 541.03 636.94 627.74 636.94 627.74 551.73 542.52 551.73 541.03 551.73"/>
  <polygon class="cls-1" points="537.54 548.24 537.54 546.75 537.54 461.53 452.32 461.53 452.32 548.24 455.81 548.24 537.54 548.24"/>
  <polygon class="cls-2" points="627.74 465.02 627.74 461.53 623.5 461.53 542.52 461.53 538.29 461.53 537.54 461.53 537.54 546.75 537.54 548.24 541.03 548.24 541.03 551.73 542.52 551.73 627.74 551.73 627.74 550.23 627.74 546.75 627.74 465.02"/>
  <polygon class="cls-1" points="453.57 638.44 453.57 720.17 453.57 723.65 541.03 723.65 541.03 638.44 455.81 638.44 453.57 638.44"/>
  <polygon class="cls-1" points="450.83 634.95 450.83 633.46 450.83 548.24 365.61 548.24 365.61 634.95 368.35 634.95 450.83 634.95"/>
  <polygon class="cls-2" points="541.03 551.73 541.03 548.24 537.54 548.24 455.81 548.24 452.32 548.24 450.83 548.24 450.83 633.46 450.83 634.95 453.57 634.95 453.57 638.44 455.81 638.44 541.03 638.44 541.03 636.94 541.03 633.46 541.03 551.73"/>
  <polygon class="cls-1" points="368.35 805.38 368.35 810.36 453.57 810.36 453.57 725.15 368.35 725.15 368.35 805.38"/>
  <polygon class="cls-1" points="363.37 720.17 363.37 634.95 278.15 634.95 278.15 720.17 283.14 720.17 363.37 720.17"/>
  <polygon class="cls-2" points="453.57 638.44 453.57 634.95 450.83 634.95 368.35 634.95 365.61 634.95 363.37 634.95 363.37 720.17 368.35 720.17 368.35 725.15 453.57 725.15 453.57 723.65 453.57 720.17 453.57 638.44"/>
  <polygon class="cls-1" points="283.14 810.36 280.89 810.36 280.89 891.34 280.89 895.58 368.35 895.58 368.35 810.36 363.37 810.36 283.14 810.36"/>
  <polygon class="cls-1" points="278.15 806.13 278.15 805.38 278.15 725.15 278.15 720.17 192.94 720.17 192.94 806.13 195.68 806.13 278.15 806.13"/>
  <polygon class="cls-2" points="368.35 725.15 368.35 720.17 363.37 720.17 283.14 720.17 278.15 720.17 278.15 725.15 278.15 805.38 278.15 806.13 280.89 806.13 280.89 810.36 283.14 810.36 363.37 810.36 368.35 810.36 368.35 805.38 368.35 725.15"/>
  <polygon class="cls-1" points="194.18 896.33 194.18 977.31 194.18 981.54 280.89 981.54 280.89 896.33 195.68 896.33 194.18 896.33"/>
  <polygon class="cls-1" points="190.7 892.09 190.7 891.34 190.7 806.13 105.48 806.13 105.48 892.09 108.97 892.09 190.7 892.09"/>
  <polygon class="cls-2" points="280.89 810.36 280.89 806.13 278.15 806.13 195.68 806.13 192.94 806.13 190.7 806.13 190.7 891.34 190.7 892.09 194.18 892.09 194.18 896.33 195.68 896.33 280.89 896.33 280.89 895.58 280.89 891.34 280.89 810.36"/>
  <polygon class="cls-1" points="107.47 982.29 107.47 1067.5 194.18 1067.5 194.18 982.29 108.97 982.29 107.47 982.29"/>
  <polygon class="cls-1" points="103.99 977.31 103.99 892.09 18.77 892.09 18.77 978.05 103.99 978.05 103.99 977.31"/>
  <polygon class="cls-2" points="194.18 896.33 194.18 892.09 190.7 892.09 108.97 892.09 105.48 892.09 103.99 892.09 103.99 977.31 103.99 978.05 107.47 978.05 107.47 982.29 108.97 982.29 194.18 982.29 194.18 981.54 194.18 977.31 194.18 896.33"/>
  <polygon class="cls-2" points="107.47 978.05 103.99 978.05 18.77 978.05 17.28 978.05 17.28 1068.25 107.47 1068.25 107.47 1067.5 107.47 982.29 107.47 978.05"/>
  <polygon points="973.08 805.38 887.62 805.38 887.62 806.63 886.37 806.63 886.37 808.87 886.37 895.58 976.57 895.58 976.57 808.87 976.57 807.37 973.08 807.37 973.08 805.38"/>
  <polygon points="883.38 284.12 883.38 288.61 883.38 374.32 886.37 374.32 973.08 374.32 973.08 373.82 973.58 373.82 973.58 284.12 973.08 284.12 890.86 284.12 883.38 284.12"/>
  <polygon points="801.16 461.28 801.16 376.31 801.16 372.83 715.44 372.83 715.44 376.31 714.95 376.31 710.96 376.31 710.96 463.02 713.7 463.02 797.42 463.02 797.42 461.28 801.16 461.28"/>
  <polygon points="710.96 376.31 714.95 376.31 715.44 376.31 715.44 372.83 715.44 292.59 715.44 286.12 714.95 286.12 627.74 286.12 627.74 286.61 625.24 286.61 625.24 374.82 625.24 376.31 710.96 376.31"/>
  <polygon points="284.88 196.42 284.88 117.18 277.41 117.18 277.41 111.7 194.68 111.7 194.68 201.9 280.4 201.9 280.4 196.42 284.88 196.42"/>
  <polygon points="284.88 117.18 710.96 117.18 710.96 117.01 710.96 114.69 717.94 114.69 717.94 26.98 277.41 26.98 277.41 111.7 277.41 117.18 284.88 117.18"/>
  <polygon points="627.74 286.12 627.74 202.89 627.74 196.42 284.88 196.42 280.4 196.42 280.4 201.9 280.4 286.61 625.24 286.61 627.74 286.61 627.74 286.12"/>
  <polygon points="887.62 805.38 887.62 461.28 886.37 461.28 801.16 461.28 797.42 461.28 797.42 463.02 797.42 806.63 886.37 806.63 887.62 806.63 887.62 805.38"/>
  <polygon points="976.57 373.82 973.58 373.82 973.08 373.82 973.08 374.32 973.08 805.38 973.08 807.37 976.57 807.37 1063.28 807.37 1063.28 373.82 976.57 373.82"/>
  <polygon points="710.96 117.01 710.96 117.18 710.96 196.17 710.96 196.86 710.96 198.16 710.96 198.72 717.44 198.72 796.17 198.72 800.66 198.72 801.16 198.72 801.16 198.41 801.16 192.68 801.16 114.69 796.17 114.69 717.94 114.69 710.96 114.69 710.96 117.01"/>
  <polygon class="cls-1" points="801.16 198.41 882.88 198.41 883.38 198.41 883.38 284.12 890.86 284.12 973.08 284.12 973.08 204.89 973.08 198.41 973.08 114.69 886.37 114.69 882.88 114.69 801.16 114.69 801.16 192.68 801.16 198.41"/>
</svg>